M48
; DRILL file {KiCad (5.1.9)-1} date 07/10/21 01:49:57
; FORMAT={-:-/ absolute / inch / decimal}
; #@! TF.CreationDate,2021-07-10T01:49:57+09:00
; #@! TF.GenerationSoftware,Kicad,Pcbnew,(5.1.9)-1
FMAT,2
INCH
T1C0.0118
T2C0.0197
T3C0.0272
T4C0.0276
T5C0.0289
T6C0.0315
T7C0.0394
%
G90
G05
T1
X1.6175Y-6.7675
X1.68Y-3.05
X1.68Y-3.12
X1.7Y-0.8
X1.7Y-1.9
X1.7Y-5.2
X1.7175Y-5.7175
X1.8Y-3.9
X1.9Y-2.8
X1.9Y-5.6
X1.9675Y-6.1675
X1.9697Y-2.089
X1.971Y-7.2575
X1.9775Y-6.0185
X2.0275Y-5.8885
X2.1Y-1.9
X2.1Y-5.2
X2.1225Y-3.8235
X2.1275Y-3.4735
X2.1475Y-6.7675
X2.192Y-3.203
X2.1997Y-2.089
X2.2Y-1.5
X2.3075Y-6.5575
X2.3225Y-3.9885
X2.36Y-2.9375
X2.3625Y-2.7475
X2.3675Y-2.605
X2.3825Y-3.3485
X2.4097Y-2.089
X2.4127Y-3.2373
X2.4425Y-3.5835
X2.4687Y-3.7984
X2.4825Y-3.2085
X2.5Y-1.9
X2.5275Y-3.0835
X2.6025Y-2.5685
X2.6397Y-2.089
X2.7Y-1.9
X2.7025Y-2.6835
X2.7083Y-2.7565
X2.7525Y-3.6635
X2.7525Y-3.8885
X2.7672Y-2.854
X2.7775Y-2.5385
X2.8425Y-2.8935
X2.8425Y-3.3935
X2.8825Y-3.5735
X2.8897Y-2.089
X2.9025Y-3.2085
X2.9175Y-2.4585
X2.9275Y-2.5535
X2.935Y-3.09
X2.98Y-4.24
X2.9897Y-2.089
X2.9998Y-2.8302
X3.0Y-4.0
X3.0047Y-2.6248
X3.0225Y-3.5285
X3.0264Y-2.7544
X3.0432Y-2.9458
X3.0575Y-3.7485
X3.0908Y-2.6248
X3.095Y-4.1775
X3.0972Y-2.7665
X3.1Y-1.2
X3.1Y-1.9
X3.1125Y-5.5985
X3.1175Y-3.4985
X3.1225Y-2.4735
X3.1497Y-2.804
X3.16Y-2.5872
X3.1925Y-3.4885
X3.1975Y-3.0785
X3.1975Y-3.6935
X3.2025Y-4.2325
X3.22Y-6.7
X3.2297Y-2.089
X3.2332Y-2.2983
X3.2463Y-6.5213
X3.2575Y-3.6385
X3.2725Y-2.5235
X3.2725Y-3.6935
X3.275Y-2.67
X3.275Y-6.965
X3.2819Y-2.9134
X3.2875Y-2.4685
X3.291Y-3.5
X3.3197Y-2.099
X3.32Y-2.2562
X3.32Y-6.2675
X3.325Y-2.87
X3.33Y-6.7163
X3.35Y-6.78
X3.3675Y-4.1625
X3.37Y-2.39
X3.3733Y-2.689
X3.3775Y-3.6885
X3.3775Y-5.7985
X3.3975Y-6.8425
X3.4Y-1.9
X3.405Y-2.74
X3.42Y-2.521
X3.4562Y-6.5595
X3.4675Y-5.7635
X3.47Y-6.4875
X3.4725Y-2.4935
X3.475Y-2.565
X3.485Y-4.24
X3.49Y-2.39
X3.5Y-1.0
X3.5Y-1.5
X3.5Y-5.1
X3.5Y-5.5
X3.5Y-6.0
X3.5025Y-6.975
X3.515Y-3.03
X3.52Y-2.47
X3.5275Y-5.8635
X3.54Y-3.06
X3.5525Y-6.4662
X3.5575Y-3.2335
X3.5697Y-2.099
X3.575Y-2.625
X3.5775Y-6.805
X3.58Y-3.015
X3.59Y-6.2925
X3.6Y-3.2048
X3.6Y-4.2
X3.6057Y-2.9635
X3.6203Y-6.4562
X3.64Y-3.846
X3.6425Y-4.115
X3.6575Y-3.1835
X3.6597Y-2.099
X3.68Y-3.025
X3.6833Y-5.5352
X3.6875Y-6.9075
X3.689Y-5.4577
X3.7Y-4.9
X3.702Y-5.5619
X3.7057Y-5.4856
X3.715Y-6.71
X3.7188Y-5.8587
X3.72Y-5.9156
X3.7225Y-5.0935
X3.7225Y-5.5135
X3.7226Y-5.948
X3.7228Y-5.587
X3.7275Y-5.9835
X3.7325Y-6.0235
X3.7375Y-6.0585
X3.7375Y-6.0935
X3.7375Y-6.1335
X3.7435Y-5.6121
X3.7475Y-5.1235
X3.7625Y-5.6385
X3.7775Y-5.1485
X3.7825Y-5.2385
X3.7975Y-5.2685
X3.8Y-1.2
X3.8Y-1.9
X3.8039Y-3.065
X3.8045Y-5.1705
X3.8225Y-5.2985
X3.8275Y-5.1935
X3.835Y-2.5085
X3.8375Y-6.4475
X3.8441Y-2.7507
X3.8475Y-6.1775
X3.8475Y-6.3075
X3.8475Y-6.615
X3.8693Y-3.0908
X3.8775Y-3.0035
X3.8791Y-2.3485
X3.881Y-6.7675
X3.881Y-6.9175
X3.885Y-3.335
X3.9054Y-2.808
X3.9097Y-2.099
X3.9568Y-6.4587
X3.97Y-3.195
X3.9725Y-2.6435
X3.9775Y-3.8825
X3.9925Y-3.0825
X3.995Y-6.2
X3.9987Y-3.3692
X3.9993Y-6.4649
X4.0Y-4.3
X4.031Y-6.7775
X4.0358Y-2.5692
X4.0379Y-6.4656
X4.041Y-6.6075
X4.0475Y-2.481
X4.05Y-3.21
X4.061Y-3.0146
X4.0725Y-2.8885
X4.075Y-2.81
X4.081Y-6.9175
X4.083Y-3.717
X4.0838Y-3.0379
X4.095Y-2.665
X4.1025Y-5.4135
X4.105Y-6.2175
X4.1125Y-3.5075
X4.12Y-2.505
X4.13Y-2.8225
X4.145Y-2.985
X4.15Y-2.55
X4.1598Y-6.4562
X4.165Y-2.3325
X4.1737Y-2.7211
X4.182Y-2.949
X4.184Y-3.9262
X4.19Y-3.425
X4.19Y-3.605
X4.191Y-6.7775
X4.2Y-1.9
X4.22Y-2.8085
X4.231Y-6.9175
X4.235Y-3.075
X4.2375Y-2.8575
X4.245Y-3.23
X4.245Y-3.895
X4.2625Y-5.4885
X4.2685Y-2.9392
X4.27Y-3.28
X4.285Y-2.4525
X4.285Y-6.3175
X4.2875Y-2.6575
X4.295Y-3.425
X4.295Y-3.605
X4.2975Y-2.3325
X4.3Y-1.0
X4.3Y-1.5
X4.31Y-2.535
X4.32Y-3.08
X4.345Y-3.23
X4.3483Y-4.2239
X4.351Y-6.6288
X4.351Y-6.7775
X4.3536Y-6.2036
X4.3565Y-4.0384
X4.3725Y-2.485
X4.38Y-2.3
X4.3809Y-4.2251
X4.3891Y-4.0394
X4.39Y-2.83
X4.391Y-5.8898
X4.391Y-6.9175
X4.395Y-3.425
X4.405Y-3.83
X4.4134Y-4.2242
X4.42Y-3.08
X4.4216Y-4.0417
X4.43Y-2.43
X4.43Y-2.7425
X4.43Y-3.86
X4.4375Y-5.4135
X4.4375Y-6.28
X4.4427Y-5.7182
X4.445Y-3.23
X4.45Y-4.22
X4.4554Y-4.042
X4.462Y-5.8748
X4.4625Y-5.9135
X4.4626Y-2.5805
X4.47Y-2.91
X4.475Y-2.745
X4.475Y-3.83
X4.4782Y-3.9018
X4.4968Y-5.7375
X4.5Y-3.27
X4.501Y-6.7775
X4.5166Y-5.9758
X4.5213Y-5.7599
X4.5261Y-5.8024
X4.5275Y-2.86
X4.53Y-3.905
X4.5375Y-6.0675
X4.55Y-3.455
X4.55Y-3.81
X4.5504Y-5.8525
X4.551Y-6.9175
X4.5545Y-3.5189
X4.5549Y-5.9384
X4.556Y-6.0075
X4.5575Y-6.24
X4.5587Y-5.7999
X4.56Y-3.865
X4.5767Y-5.8717
X4.58Y-4.03
X4.5819Y-5.8228
X4.5863Y-5.9539
X4.6Y-5.44
X4.605Y-6.295
X4.6075Y-6.185
X4.61Y-3.695
X4.61Y-3.81
X4.6171Y-5.874
X4.6175Y-5.4935
X4.6179Y-5.1275
X4.625Y-2.77
X4.6317Y-2.5347
X4.64Y-3.53
X4.66Y-2.12
X4.661Y-6.7775
X4.6694Y-3.1655
X4.68Y-3.305
X4.7Y-1.2
X4.701Y-6.9175
X4.7039Y-4.2132
X4.7175Y-5.4135
X4.7266Y-2.5322
X4.7269Y-4.2362
X4.7355Y-3.5489
X4.74Y-1.865
X4.7607Y-3.3437
X4.763Y-3.8978
X4.7665Y-5.3507
X4.7759Y-3.9453
X4.7825Y-5.7035
X4.785Y-5.95
X4.7862Y-3.6816
X4.79Y-6.205
X4.7928Y-2.3485
X4.8067Y-3.9338
X4.8133Y-2.309
X4.8142Y-3.5462
X4.821Y-6.7775
X4.8464Y-3.8922
X4.8472Y-2.284
X4.851Y-6.9175
X4.8533Y-2.589
X4.8588Y-6.4262
X4.8633Y-2.359
X4.8633Y-2.789
X4.8719Y-3.8165
X4.8825Y-5.5725
X4.8825Y-6.3075
X4.884Y-3.3092
X4.8922Y-2.324
X4.9035Y-6.4337
X4.905Y-4.11
X4.9073Y-2.5984
X4.9102Y-2.5428
X4.9136Y-3.882
X4.915Y-3.075
X4.9152Y-2.5107
X4.9175Y-4.9432
X4.9175Y-4.9758
X4.9313Y-6.4168
X4.9425Y-3.925
X4.955Y-3.68
X4.96Y-1.56
X4.96Y-3.73
X4.9633Y-2.5677
X4.9635Y-6.4121
X4.971Y-6.7775
X4.985Y-4.005
X4.9925Y-5.5725
X4.9937Y-6.4662
X4.9954Y-6.4187
X5.0025Y-5.3975
X5.0088Y-3.41
X5.011Y-6.9175
X5.015Y-3.625
X5.0333Y-2.399
X5.045Y-3.05
X5.0497Y-3.689
X5.0688Y-3.1
X5.0775Y-6.3025
X5.0825Y-6.205
X5.09Y-3.51
X5.09Y-5.6525
X5.0958Y-3.179
X5.1Y-1.68
X5.1033Y-1.8033
X5.11Y-2.725
X5.1175Y-5.5725
X5.1187Y-6.4296
X5.1212Y-3.825
X5.125Y-3.865
X5.135Y-5.425
X5.1725Y-1.4825
X5.1747Y-2.494
X5.19Y-2.85
X5.1933Y-2.629
X5.2033Y-2.079
X5.2133Y-2.299
X5.2148Y-2.369
X5.2202Y-2.1423
X5.2204Y-2.5322
X5.222Y-3.109
X5.2334Y-4.9815
X5.235Y-3.75
X5.2433Y-2.989
X5.2512Y-2.2068
X5.2572Y-2.539
X5.2575Y-6.3025
X5.2643Y-4.1706
X5.266Y-4.9815
X5.2873Y-4.1476
X5.3Y-3.5
X5.3075Y-6.7075
X5.3232Y-5.4572
X5.3465Y-5.4345
X5.3527Y-2.5195
X5.3675Y-6.4675
X5.3725Y-5.6575
X5.3735Y-5.4075
X5.3775Y-3.83
X5.3833Y-2.539
X5.39Y-6.2
X5.3925Y-5.9425
X5.4015Y-5.3865
X5.4295Y-5.3605
X5.43Y-2.97
X5.4475Y-6.7075
X5.5133Y-2.379
X5.5133Y-2.489
X5.56Y-3.54
X5.5755Y-5.8595
X5.5875Y-6.3575
X5.5975Y-6.7075
X5.6Y-2.6425
X5.6Y-2.78
X5.6051Y-5.8772
X5.6052Y-5.9098
X5.6146Y-5.7569
X5.6164Y-5.7244
X5.6257Y-5.6858
X5.6275Y-1.9275
X5.6322Y-6.0072
X5.6375Y-6.3075
X5.6509Y-5.9311
X5.6667Y-6.0273
X5.6774Y-5.9507
X5.69Y-1.285
X5.6924Y-6.0472
X5.7033Y-5.9704
X5.7225Y-6.0685
X5.7325Y-5.9935
X5.7375Y-6.4575
X5.7375Y-6.7075
X5.7383Y-2.5565
X5.7497Y-1.074
X5.75Y-3.19
X5.7697Y-2.219
X5.78Y-1.925
X5.7825Y-1.81
X5.7875Y-6.3075
X5.8097Y-1.334
X5.8308Y-2.3565
X5.8747Y-2.089
X5.8797Y-1.494
X5.8875Y-6.5075
X5.9Y-4.3
X5.91Y-6.2925
X5.9108Y-6.0666
X5.911Y-6.0275
X5.911Y-6.2475
X5.911Y-6.3505
X5.911Y-6.3875
X5.915Y-5.285
X5.921Y-6.1575
X5.9261Y-6.0978
X5.9375Y-6.7075
X5.9375Y-6.8075
X5.9497Y-1.344
X5.9583Y-2.144
X5.9726Y-2.344
X5.9897Y-1.434
X5.997Y-6.3445
X5.998Y-6.2995
X6.0Y-3.4
X6.01Y-6.2405
X6.011Y-6.4175
X6.0183Y-2.044
X6.0197Y-2.709
X6.0246Y-2.3302
X6.0297Y-1.044
X6.031Y-6.1475
X6.0383Y-2.144
X6.0497Y-1.174
X6.0533Y-3.2315
X6.061Y-5.9875
X6.0633Y-2.9955
X6.0701Y-6.1088
X6.071Y-6.0388
X6.0772Y-2.579
X6.0806Y-2.8217
X6.0815Y-2.3046
X6.086Y-5.5325
X6.0983Y-2.114
X6.0983Y-2.154
X6.1026Y-2.3479
X6.1111Y-2.2725
X6.1126Y-2.9745
X6.1283Y-2.684
X6.1288Y-2.5197
X6.1452Y-2.3402
X6.151Y-5.6975
X6.1583Y-2.114
X6.1845Y-2.4566
X6.1883Y-2.004
X6.1997Y-1.334
X6.2075Y-1.9525
X6.2097Y-1.104
X6.2158Y-2.4874
X6.2597Y-1.064
X6.26Y-1.835
X6.2733Y-3.139
X6.2774Y-3.0027
X6.2925Y-2.65
X6.295Y-2.5375
X6.3225Y-3.1025
X6.3245Y-2.274
X6.3252Y-2.389
X6.33Y-1.8825
X6.3925Y-2.925
X6.4Y-3.7
X6.4Y-4.3
X6.4Y-5.0
X6.415Y-5.285
T2
X1.66Y-1.5325
X1.7775Y-5.015
X6.015Y-4.965
X6.1475Y-4.115
T3
X2.5425Y-3.3735
X2.6425Y-3.2735
X2.7425Y-3.3735
T4
X2.03Y-4.25
X2.0525Y-6.3435
X2.0552Y-6.4992
X2.1275Y-4.9485
X2.2975Y-6.4135
X2.311Y-6.8975
X2.4425Y-6.4135
X2.4889Y-3.0288
X2.5025Y-3.6835
X3.009Y-4.139
X3.045Y-6.855
X3.1575Y-3.6435
X3.3675Y-4.9635
X3.3775Y-5.8685
X3.3825Y-5.3735
X3.5125Y-3.1563
X3.715Y-4.145
X4.0775Y-2.3185
X4.085Y-4.01
X4.1443Y-3.1177
X4.28Y-4.065
X4.335Y-3.815
X4.6225Y-2.3775
X4.67Y-4.0603
X4.6853Y-3.7097
X5.2497Y-0.724
X5.57Y-3.31
X5.8098Y-2.1155
X5.8608Y-2.9265
X6.0297Y-0.774
T5
X1.7333Y-2.3834
X1.7333Y-2.4535
X1.7333Y-2.5236
X1.7333Y-2.5937
X1.7333Y-2.6638
X1.7333Y-2.7338
X1.7333Y-2.8039
X1.7333Y-2.874
X1.7333Y-2.9441
X1.7333Y-3.0142
X1.7333Y-3.0842
X1.7333Y-3.1543
X1.7333Y-3.2244
X1.7333Y-3.2945
X2.1333Y-2.3834
X2.1333Y-2.4535
X2.1333Y-2.5236
X2.1333Y-2.5937
X2.1333Y-2.6638
X2.1333Y-2.7338
X2.1333Y-2.8039
X2.1333Y-2.874
X2.1333Y-2.9441
X2.1333Y-3.0142
X2.1333Y-3.0842
X2.1333Y-3.1543
X2.1333Y-3.2244
X2.1333Y-3.2945
T6
X2.4275Y-4.9835
X2.4275Y-5.0835
X2.4275Y-5.1835
X2.4275Y-5.2835
X2.4275Y-5.3835
X2.4275Y-5.4835
X2.4275Y-5.5835
X2.4275Y-5.6835
X2.4275Y-5.7835
X2.4275Y-5.8835
X2.4275Y-5.9835
X2.4275Y-6.0835
X2.4275Y-6.1835
X2.4275Y-6.2835
X3.0275Y-4.9835
X3.0275Y-5.0835
X3.0275Y-5.1835
X3.0275Y-5.2835
X3.0275Y-5.3835
X3.0275Y-5.4835
X3.0275Y-5.5835
X3.0275Y-5.6835
X3.0275Y-5.7835
X3.0275Y-5.8835
X3.0275Y-5.9835
X3.0275Y-6.0835
X3.0275Y-6.1835
X3.0275Y-6.2835
X5.2696Y-0.9055
X5.2696Y-1.2055
X5.3696Y-0.9055
X5.3696Y-1.2055
X5.4696Y-0.9055
X5.4696Y-1.2055
X5.5696Y-0.9055
X5.5696Y-1.2055
X5.6696Y-0.9055
X5.6696Y-1.2055
X5.7696Y-0.9055
X5.7696Y-1.2055
X5.8696Y-0.9055
X5.8696Y-1.2055
T7
X1.7Y-6.8563
X1.732Y-4.3772
X1.732Y-4.4772
X1.732Y-4.6646
X1.732Y-4.7646
X1.8Y-0.8063
X1.832Y-4.3772
X1.832Y-4.4772
X1.832Y-4.6646
X1.832Y-4.7646
X1.932Y-4.3772
X1.932Y-4.4772
X1.932Y-4.6646
X1.932Y-4.7646
X2.032Y-4.3772
X2.032Y-4.4772
X2.032Y-4.6646
X2.032Y-4.7646
X2.132Y-4.3772
X2.132Y-4.4772
X2.132Y-4.6646
X2.132Y-4.7646
X2.232Y-4.3772
X2.232Y-4.4772
X2.232Y-4.6646
X2.232Y-4.7646
X2.332Y-4.3772
X2.332Y-4.4772
X2.332Y-4.6646
X2.332Y-4.7646
X2.432Y-4.3772
X2.432Y-4.4772
X2.432Y-4.6646
X2.432Y-4.7646
X2.532Y-4.3772
X2.532Y-4.4772
X2.532Y-4.6646
X2.532Y-4.7646
X2.632Y-4.3772
X2.632Y-4.4772
X2.632Y-4.6646
X2.632Y-4.7646
X4.55Y-1.2
X4.6611Y-4.3772
X4.6611Y-4.4772
X4.6611Y-4.6646
X4.6611Y-4.7646
X4.7611Y-4.3772
X4.7611Y-4.4772
X4.7611Y-4.6646
X4.7611Y-4.7646
X4.8611Y-4.3772
X4.8611Y-4.4772
X4.8611Y-4.6646
X4.8611Y-4.7646
X4.9611Y-4.3772
X4.9611Y-4.4772
X4.9611Y-4.6646
X4.9611Y-4.7646
X5.0611Y-4.3772
X5.0611Y-4.4772
X5.0611Y-4.6646
X5.0611Y-4.7646
X5.1611Y-4.3772
X5.1611Y-4.4772
X5.1611Y-4.6646
X5.1611Y-4.7646
X5.2611Y-4.3772
X5.2611Y-4.4772
X5.2611Y-4.6646
X5.2611Y-4.7646
X5.3611Y-4.3772
X5.3611Y-4.4772
X5.3611Y-4.6646
X5.3611Y-4.7646
X5.4611Y-4.3772
X5.4611Y-4.4772
X5.4611Y-4.6646
X5.4611Y-4.7646
X5.5611Y-4.3772
X5.5611Y-4.4772
X5.5611Y-4.6646
X5.5611Y-4.7646
X6.0Y-6.8563
T0
M30
